<?xml version="1.0" encoding="utf-8"?>
<COLLADA xmlns="http://www.collada.org/2005/11/COLLADASchema" version="1.4.1">
  <asset><up_axis>Z_UP</up_axis></asset>
  <library_images>
    <image id="wood_img" name="wood_img">
      <init_from>table_wood.png</init_from>
    </image>
  </library_images>
  <library_effects>
    <effect id="wood_effect">
      <profile_COMMON>
        <newparam sid="wood_surf"><surface type="2D"><init_from>wood_img</init_from></surface></newparam>
        <newparam sid="wood_samp"><sampler2D><source>wood_surf</source></sampler2D></newparam>
        <technique sid="common">
          <lambert>
            <diffuse><texture texture="wood_samp" texcoord="UVMap"/></diffuse>
            <transparency><float>1.0</float></transparency>
          </lambert>
        </technique>
      </profile_COMMON>
    </effect>
  </library_effects>
  <library_materials>
    <material id="wood_mat" name="wood_mat">
      <instance_effect url="#wood_effect"/>
    </material>
  </library_materials>
  <library_geometries>
    <geometry id="table_geo" name="table">
      <mesh>
        <source id="pos">
          <float_array id="pos-arr" count="72">-0.6050 -0.3000 0.0100 0.6050 -0.3000 0.0100 0.6050 0.3000 0.0100 -0.6050 0.3000 0.0100 -0.6050 0.3000 -0.0100 0.6050 0.3000 -0.0100 0.6050 -0.3000 -0.0100 -0.6050 -0.3000 -0.0100 0.6050 -0.3000 -0.0100 0.6050 0.3000 -0.0100 0.6050 0.3000 0.0100 0.6050 -0.3000 0.0100 -0.6050 0.3000 -0.0100 -0.6050 -0.3000 -0.0100 -0.6050 -0.3000 0.0100 -0.6050 0.3000 0.0100 0.6050 -0.3000 -0.0100 -0.6050 -0.3000 -0.0100 -0.6050 -0.3000 0.0100 0.6050 -0.3000 0.0100 -0.6050 0.3000 -0.0100 0.6050 0.3000 -0.0100 0.6050 0.3000 0.0100 -0.6050 0.3000 0.0100</float_array>
          <technique_common>
            <accessor source="#pos-arr" count="24" stride="3">
              <param name="X" type="float"/><param name="Y" type="float"/><param name="Z" type="float"/>
            </accessor>
          </technique_common>
        </source>
        <source id="nor">
          <float_array id="nor-arr" count="72">0.0000 0.0000 1.0000 0.0000 0.0000 1.0000 0.0000 0.0000 1.0000 0.0000 0.0000 1.0000 0.0000 0.0000 -1.0000 0.0000 0.0000 -1.0000 0.0000 0.0000 -1.0000 0.0000 0.0000 -1.0000 1.0000 0.0000 0.0000 1.0000 0.0000 0.0000 1.0000 0.0000 0.0000 1.0000 0.0000 0.0000 -1.0000 0.0000 0.0000 -1.0000 0.0000 0.0000 -1.0000 0.0000 0.0000 -1.0000 0.0000 0.0000 0.0000 -1.0000 0.0000 0.0000 -1.0000 0.0000 0.0000 -1.0000 0.0000 0.0000 -1.0000 0.0000 0.0000 1.0000 0.0000 0.0000 1.0000 0.0000 0.0000 1.0000 0.0000 0.0000 1.0000 0.0000</float_array>
          <technique_common>
            <accessor source="#nor-arr" count="24" stride="3">
              <param name="X" type="float"/><param name="Y" type="float"/><param name="Z" type="float"/>
            </accessor>
          </technique_common>
        </source>
        <source id="uv">
          <float_array id="uv-arr" count="48">0.000000 0.000000 1.000000 0.000000 1.000000 1.000000 0.000000 1.000000 0.000000 0.000000 1.000000 0.000000 1.000000 1.000000 0.000000 1.000000 0.000000 0.000000 1.000000 0.000000 1.000000 1.000000 0.000000 1.000000 0.000000 0.000000 1.000000 0.000000 1.000000 1.000000 0.000000 1.000000 0.000000 0.000000 1.000000 0.000000 1.000000 1.000000 0.000000 1.000000 0.000000 0.000000 1.000000 0.000000 1.000000 1.000000 0.000000 1.000000</float_array>
          <technique_common>
            <accessor source="#uv-arr" count="24" stride="2">
              <param name="S" type="float"/><param name="T" type="float"/>
            </accessor>
          </technique_common>
        </source>
        <vertices id="verts"><input semantic="POSITION" source="#pos"/></vertices>
        <triangles count="12" material="wood_mat">
          <input semantic="VERTEX"   source="#verts" offset="0"/>
          <input semantic="NORMAL"   source="#nor"   offset="1"/>
          <input semantic="TEXCOORD" source="#uv"    offset="2" set="0"/>
          <p>0 0 0 1 1 1 2 2 2 0 0 0 2 2 2 3 3 3 4 4 4 5 5 5 6 6 6 4 4 4 6 6 6 7 7 7 8 8 8 9 9 9 10 10 10 8 8 8 10 10 10 11 11 11 12 12 12 13 13 13 14 14 14 12 12 12 14 14 14 15 15 15 16 16 16 17 17 17 18 18 18 16 16 16 18 18 18 19 19 19 20 20 20 21 21 21 22 22 22 20 20 20 22 22 22 23 23 23</p>
        </triangles>
      </mesh>
    </geometry>
  </library_geometries>
  <library_visual_scenes>
    <visual_scene id="Scene" name="Scene">
      <node id="Table" name="Table" type="NODE">
        <instance_geometry url="#table_geo">
          <bind_material>
            <technique_common>
              <instance_material symbol="wood_mat" target="#wood_mat">
                <bind_vertex_input semantic="UVMap" input_semantic="TEXCOORD" input_set="0"/>
              </instance_material>
            </technique_common>
          </bind_material>
        </instance_geometry>
      </node>
    </visual_scene>
  </library_visual_scenes>
  <scene><instance_visual_scene url="#Scene"/></scene>
</COLLADA>